<?xml version="1.0" encoding="UTF-8"?>
<svg width="137px" height="51px" viewBox="0 0 137 51" version="1.1" xmlns="http://www.w3.org/2000/svg" xmlns:xlink="http://www.w3.org/1999/xlink">
    <!-- Generator: Sketch 53 (72520) - https://sketchapp.com -->
    <title>Base/Logo</title>
    <desc>Created with Sketch.</desc>
    <g id="Web-Pages" stroke="none" stroke-width="1" fill="none" fill-rule="evenodd">
        <g id="1#Login" transform="translate(-104.000000, -238.000000)" fill="#4D4C4D">
            <g id="Group-2" transform="translate(53.000000, 182.000000)">
                <g id="From" transform="translate(50.000000, 56.000000)">
                    <g id="Base/Logo">
                        <g id="final-logo" transform="translate(1.362745, 0.000000)">
                            <path d="M4.25296272,0.0456716418 C4.25296272,0.197910448 4.2379875,0.365373134 4.2379875,0.51761194 C4.2379875,8.47970149 4.2379875,16.441791 4.2379875,24.4038806 C4.2379875,24.5713433 4.2379875,24.738806 4.2379875,24.9214925 C4.44764059,24.9214925 4.5225167,24.7692537 4.61236802,24.6779104 C5.49590605,23.7797015 6.45432019,23.0185075 7.51756087,22.3638806 C9.19478561,21.3438806 11.0067873,20.658806 12.9385908,20.3543284 C13.897005,20.2020896 14.8703943,20.1107463 15.8288084,20.1564179 C19.6025641,20.3391045 22.9120879,21.6940299 25.6825038,24.3277612 C28.1084895,26.6265672 29.6209869,29.458209 30.2199957,32.761791 C30.8040293,36.0044776 30.4296488,39.140597 29.021978,42.1244776 C27.1500754,46.0674627 24.1550312,48.7468657 20.0817712,50.1779104 C18.9586296,50.5737313 17.8055376,50.8173134 16.6075199,50.878209 C15.9486102,50.9086567 15.2897005,50.9695522 14.6307908,50.9391045 C10.7372334,50.7107463 7.38278388,49.218806 4.5973928,46.4328358 C4.50754148,46.3414925 4.41769015,46.2501493 4.28291317,46.1283582 C4.1631114,46.4937313 4.2379875,46.798209 4.22301228,47.1179104 C4.20803706,47.4376119 4.22301228,47.7573134 4.22301228,48.061791 C4.22301228,48.3662687 4.22301228,48.701194 4.22301228,49.0056716 C4.22301228,49.3101493 4.22301228,49.6450746 4.22301228,49.9495522 C4.22301228,50.2692537 4.22301228,50.5737313 4.22301228,50.9238806 C4.05828485,50.9238806 3.92350786,50.9391045 3.8037061,50.9391045 C2.69553975,50.9391045 1.60234863,50.9391045 0.494182288,50.9391045 C0.34443008,50.9391045 0.209653092,50.9543284 0.0599008834,50.9543284 C0.0599008834,33.9797015 0.0599008834,17.0050746 0.0599008834,0.0152238806 C1.46757164,0.0456716418 2.86026718,0.0456716418 4.25296272,0.0456716418 Z M26.4162896,35.5629851 C26.4612153,29.6408955 21.7739711,24.3734328 15.4544279,24.2973134 C9.34453782,24.2364179 4.26793794,29.1689552 4.26793794,35.5477612 C4.26793794,41.941791 9.34453782,46.8134328 15.3496014,46.8134328 C21.6092437,46.8286567 26.44624,41.5916418 26.4162896,35.5629851 Z" id="Shape" fill-rule="nonzero"></path>
                            <path d="M65.77117,35.6086567 C65.8011204,43.7534328 59.3468003,50.9847761 50.6012713,50.9543284 C41.8856927,50.9391045 35.4014221,43.6468657 35.5062487,35.3650746 C35.5961,27.2050746 42.1552467,20.0041791 50.9457014,20.1716418 C59.331825,20.3238806 65.8460461,27.3420896 65.77117,35.6086567 Z M39.5645335,35.9131343 C39.5795087,42.0483582 44.4165051,47.1635821 50.6611722,47.1635821 C56.9956906,47.1483582 61.7128852,41.9113433 61.7278604,35.9283582 C61.7428356,29.6408955 56.6063348,24.5865672 50.5263952,24.6474627 C44.7459599,24.6931343 39.5795087,29.4734328 39.5645335,35.9131343 Z" id="Shape" fill-rule="nonzero"></path>
                            <path d="M70.8028442,35.578209 C70.787869,27.1898507 77.3769662,20.2934328 85.7181642,20.1716418 C94.3289162,20.0498507 101.082741,27.0985075 101.082741,35.5629851 C101.082741,43.9361194 94.5086188,50.9847761 85.9128421,50.9695522 C77.3320405,50.9543284 70.8028442,43.8904478 70.8028442,35.578209 Z M97.0094807,35.578209 C97.0843568,29.701791 92.4120879,24.358209 86.0326438,24.2973134 C79.9527042,24.2364179 74.8761043,29.1841791 74.8611291,35.5477612 C74.8461538,41.8808955 79.8778281,46.8134328 85.9278173,46.8286567 C92.3072614,46.8286567 97.0693816,41.5002985 97.0094807,35.578209 Z" id="Shape" fill-rule="nonzero"></path>
                            <path d="M109.933096,50.9543284 C108.570351,50.9543284 107.267507,50.9543284 105.919737,50.9543284 C105.904762,50.8173134 105.889787,50.6955224 105.889787,50.5585075 C105.889787,45.2149254 105.859836,39.8713433 105.904762,34.5277612 C105.934712,31.3155224 106.968003,28.4077612 108.869856,25.8501493 C111.041263,22.8814925 113.93148,20.9632836 117.450657,20.0650746 C118.843353,19.7149254 120.251023,19.6083582 121.688645,19.6692537 C124.74359,19.7910448 127.49903,20.780597 129.954967,22.6074627 C133.159664,25.0128358 135.136393,28.2250746 135.900129,32.1985075 C136.064857,33.0814925 136.154708,33.9797015 136.154708,34.8779104 C136.154708,40.0844776 136.154708,45.3062687 136.154708,50.5128358 C136.154708,50.6498507 136.154708,50.7716418 136.154708,50.9086567 C135.885154,51 132.740358,51.0304478 132.126374,50.9543284 C132.111398,50.8020896 132.096423,50.6498507 132.096423,50.4976119 C132.096423,45.4737313 132.096423,40.4346269 132.096423,35.4107463 C132.096423,32.5029851 131.123034,29.9453731 129.206206,27.798806 C127.528981,25.9262687 125.4624,24.738806 123.021439,24.3125373 C119.427386,23.6731343 116.25264,24.6170149 113.5571,27.0832836 C111.640271,28.818806 110.502155,31.0262687 110.097824,33.5991045 C110.007972,34.1776119 109.963047,34.7561194 109.963047,35.3498507 C109.948072,40.3737313 109.963047,45.3823881 109.963047,50.4062687 C109.933096,50.5432836 109.933096,50.7259701 109.933096,50.9543284 Z" id="Path"></path>
                        </g>
                    </g>
                </g>
            </g>
        </g>
    </g>
</svg>